PathFileType	4	(X/Y/Z)	Patient4_TMGait_0pt6_02_left_24.trc.trc
DataRate	CameraRate	NumFrames	NumMarkers	Units	OrigDataRate	OrigDataStartFrame	OrigNumFrames
80.459770114943	80.459770114943	4	33	mm	80.459770114943	53	       141
Frame#	Time	Sacral			L.Shoulder			Chest			R.Shoulder			Neck			R.ASIS			L.ASIS			R.Thigh.Superior			R.Thigh.Lateral			R.Thigh.Inferior			R.Patella			L.Thigh.Superior			L.Thigh.Lateral			L.Thigh.Inferior			L.Patella			L.Shank.Superior			L.Shank.Lateral			L.Shank.Inferior			R.Shank.Superior			R.Shank.Lateral			R.Shank.Inferior			R.Heel			R.Midfoot.Superior			R.Midfoot.Lateral			R.Toe			L.Heel			L.Midfoot.Lateral			L.Midfoot.Superior			L.Toe			L.Elbow			L.Wrist			R.Elbow			R.Wrist			
		X1	Y1	Z1	X2	Y2	Z2	X3	Y3	Z3	X4	Y4	Z4	X5	Y5	Z5	X6	Y6	Z6	X7	Y7	Z7	X8	Y8	Z8	X9	Y9	Z9	X10	Y10	Z10	X11	Y11	Z11	X12	Y12	Z12	X13	Y13	Z13	X14	Y14	Z14	X15	Y15	Z15	X16	Y16	Z16	X17	Y17	Z17	X18	Y18	Z18	X19	Y19	Z19	X20	Y20	Z20	X21	Y21	Z21	X22	Y22	Z22	X23	Y23	Z23	X24	Y24	Z24	X25	Y25	Z25	X26	Y26	Z26	X27	Y27	Z27	X28	Y28	Z28	X29	Y29	Z29	X30	Y30	Z30	X31	Y31	Z31	X32	Y32	Z32	X33	Y33	Z33	

53	29.986285714286	807.152188640897	1016.944693264902	408.232813068361	1008.924701729903	1437.628620402538	219.311830898235	1111.433299922686	1360.085904187762	376.636659944166	1036.516397045573	1441.644355928388	550.374972577334	1018.503060537256	1496.837510147371	369.266326796921	1034.474552730020	949.952672436917	522.222441417617	1018.728467478960	962.551161485541	247.935317223530	1121.604896014389	789.146485388776	495.494929258142	1090.410491299536	670.353882820229	574.837307027552	1181.463850463308	633.862589932861	494.585715753846	1206.630407670834	519.524756932521	518.998704929439	1062.908120375363	751.012606878300	278.617002046879	968.279675411480	637.549477269850	224.147683738383	1051.119023683407	558.337263612173	286.653710015924	1049.264526780067	489.020208657043	298.351525403584	1021.829323011650	417.665148555889	291.009555660331	929.549198345905	304.042799353608	244.708351187121	980.815070928491	193.258527958687	315.747032969062	1126.975010283480	445.329949458514	528.756646217921	1003.313797710089	412.723674603011	588.800390985312	984.498799205614	303.352333977247	543.535211909817	786.256484204290	263.257861885439	514.354630964809	939.979859788794	175.017555275537	557.275754576763	831.449442999640	193.060664328407	587.612361714538	981.867436665641	51.010339450557	583.016088039895	852.794764583324	38.566293327537	365.643418862005	920.919518713098	35.341543499039	279.844591065077	1006.068105208788	95.976447345924	301.728266980534	1132.529819742684	42.387238270465	263.779615074306	956.194943113820	1090.022549735563	94.824868570843	1152.359278077507	919.979832945918	98.642422271935	961.194228922632	1100.263634194634	667.304470051294	1037.862904138913	849.272806192569	671.214651098100	
54	29.998714285714	806.604873494147	1017.713737647771	406.733858783583	1010.962871780947	1438.008124189769	218.595924326613	1112.111521119426	1359.942649120191	376.482521672082	1036.544520052397	1441.703054386886	549.777489988563	1019.646533609670	1497.076063591560	368.623305515994	1033.335683614635	950.722773581917	521.736111081314	1018.802687728099	963.463185494305	247.252667410429	1122.903574381516	793.770506895644	493.914841151366	1095.003471003415	674.431554868799	573.637477619719	1186.471742732705	640.022646239423	492.942242068899	1214.824044964705	526.406936258137	517.393578272523	1060.489358473036	750.022331640910	278.360165133433	964.586326159365	637.610867775785	223.716840842826	1046.220080548525	557.489658164411	286.476251342748	1043.497153270798	488.351645864792	298.301115963188	1015.896391701105	417.379708371239	290.836215050648	923.173411073879	304.145024748960	244.474916055427	973.853685052284	193.161217924677	315.612510656896	1137.525645711694	449.879271640303	527.134885860961	1015.002868488119	412.816561799280	586.841519445505	1000.275218095996	302.787684382225	541.488685035481	803.222067767346	254.186173085535	511.921949096312	960.954789754397	173.682961830330	555.097369985058	851.788589066889	186.692311864292	585.578992743053	1008.800672459316	52.430548241673	581.579813491704	845.285930511790	38.648651738976	365.608655499384	913.451707320882	35.376839139089	279.816746707309	998.645389523332	95.927595972587	301.671497439441	1125.070868313229	42.204639345917	263.720762364193	961.864981334340	1090.691967034752	92.673237972720	1166.191505921640	931.440746854738	97.373243200993	956.989128912212	1101.503701079054	666.954895103359	1019.341916223482	846.364816694786	675.533688351212	
55	30.011142857143	806.173253483504	1018.477873525840	405.378752215950	1013.114174116146	1438.360805592881	218.009560392008	1112.900122937019	1359.774150599633	376.438841871130	1036.690615288599	1441.750164429119	549.300637849343	1020.829852338894	1497.283362563133	368.113219648077	1032.301142896873	951.387941011626	521.352749449738	1018.769804462800	964.425738665948	246.681897993113	1123.920552443896	797.992991456266	492.638502508402	1098.961616277256	678.145522179395	572.671024015990	1190.756215345735	645.609199654668	491.630885908582	1221.971706985618	532.956564614523	516.165343432265	1057.947831886264	749.019736378708	278.322549412239	960.796865773140	637.718655632418	223.287278713491	1041.113646698799	556.658099893961	286.334839828004	1037.506235670574	487.727779483370	298.203879051108	1009.778575042399	417.137306463050	290.630411396053	916.640144545273	304.261394011479	244.246973447720	966.816718716365	193.098921639541	315.456814413604	1147.496661337417	454.013844281200	525.747256135323	1026.536042464033	411.816191108758	585.089065646699	1016.553133875954	301.249732125175	539.566469757915	821.331345344183	243.220514743552	509.604672442519	983.133109459834	171.263933196473	552.911261045575	873.485746623194	178.670325020316	583.570510781097	1037.452743294499	53.195361940193	579.932881290607	837.791420409354	38.746139365563	365.574570496865	905.983057315895	35.409748275311	279.800624469704	991.222401676598	95.887044787832	301.602387676823	1117.608138362082	42.034987197421	263.655716627859	967.393217329771	1091.414906986194	90.776799067883	1179.132785622606	943.094625619279	96.496543361367	952.573266065382	1102.975458913137	666.827150788844	1001.727932367486	844.924719234624	679.603074733590	
56	30.023571428571	805.860051747817	1019.192862819448	404.181132416917	1015.332954459982	1438.651674340478	217.558161025388	1113.786237938581	1359.553684263569	376.502293442624	1036.952233507698	1441.754545734259	548.949052575772	1022.047659339245	1497.431601779666	367.737859786943	1031.399867303474	951.910384192946	521.062036471901	1018.585094910795	965.358107059435	246.227878858081	1124.667618265011	801.687772753798	491.650232153768	1102.245960448094	681.356900126975	571.925998613577	1194.277665054317	650.449865808921	490.639389703460	1227.995816839461	538.999683171241	515.291863150373	1055.341143284165	747.999616118985	278.433027553807	956.931017041203	637.857452283900	222.850754860982	1035.841441804000	555.835347142702	286.193174224859	1031.346788366895	487.148010259676	298.035375213134	1003.519788491336	416.925355678092	290.382601000165	909.983292849495	304.386838705623	244.018214246818	959.724529791447	193.061768184929	315.281030709549	1156.794466374327	457.643927812898	524.592125879660	1037.922520533482	409.725471355575	583.596234061939	1033.268271991376	298.837303467590	537.817034443540	840.673095170574	230.656904488310	507.506972704125	1006.393618507549	167.949132484385	550.794736704978	896.531641543921	169.284165742578	581.669850589050	1067.505663054931	53.477819752824	578.117370020069	830.312916775805	38.860260711964	365.535577080718	898.513724412688	35.439861895793	279.794788722411	983.800964162087	95.854417759010	301.523314802643	1110.142746616585	41.876434085168	263.585845749060	972.788639273994	1092.144318746902	89.106249922226	1191.186708779321	954.801254053115	96.002040022950	947.910862909755	1104.662210685965	666.917266767929	985.182891868542	844.740014069142	683.365599414671	
